# xmcd
#
# Track frame offsets: 
#        150
#        16508
#        34596
#        58098
#        81889
#        97014
#        115034
#        133331
#        146618
#        164180
#        179968
#        199486
#        213686
#        231241
#        248608
#        267960
#        287580
#        311550
#
# Disc length: 4383 seconds
#
# Revision: 0
# Processed by: cddbd v1.5.2PL0 Copyright (c) Steve Scherf et al.
# Submitted via: ExactAudioCopy v0.95b4
#
DISCID=15111d12
DTITLE=Various Artist - Don´s Black Vol. 3
DYEAR=1900
DGENRE=
TTITLE0=Eternal - Angel of mine
TTITLE1=Coolio - Cu when u get there
TTITLE2=Blackstreet - Don´t leave me
TTITLE3=Down Low - Don´t look any further
TTITLE4=Da Brat - Ghetto love
TTITLE5=Flip da script - I never told you
TTITLE6=Dru Hill - In my bed
TTITLE7=Foxy Brown - I´ll be
TTITLE8=Bootsy Collins - I´m leaving you
TTITLE9=Club Unique - Just the way it is
TTITLE10=Soething for the people - My live is the ssh!
TTITLE11=Lutricia McNeal - My sife of town
TTITLE12=R´N´G´- Open your mind
TTITLE13=2Ruff - Owner of alonely heart
TTITLE14=Poetry´n Motion - Romeo and Juliett
TTITLE15=Missy Elliot - Sock in me
TTITLE16=C-Block - Summertime
TTITLE17=Jonestown - Sweet thang
EXTD=
EXTT0=
EXTT1=
EXTT2=
EXTT3=
EXTT4=
EXTT5=
EXTT6=
EXTT7=
EXTT8=
EXTT9=
EXTT10=
EXTT11=
EXTT12=
EXTT13=
EXTT14=
EXTT15=
EXTT16=
EXTT17=
PLAYORDER=
